<?xml version="1.0" encoding="UTF-8" standalone="no"?>
<svg
   xmlns:dc="http://purl.org/dc/elements/1.1/"
   xmlns:cc="http://creativecommons.org/ns#"
   xmlns:rdf="http://www.w3.org/1999/02/22-rdf-syntax-ns#"
   xmlns:svg="http://www.w3.org/2000/svg"
   xmlns="http://www.w3.org/2000/svg"
   xmlns:sodipodi="http://sodipodi.sourceforge.net/DTD/sodipodi-0.dtd"
   xmlns:inkscape="http://www.inkscape.org/namespaces/inkscape"
   version="1.1"
   width="220.25401mm"
   height="291.58795mm"
   id="svg2"
   inkscape:version="0.91 r13725"
   sodipodi:docname="caseplans2.svg">
<!--    viewBox="0 0 780.42823 1033.1864" -->
   <metadata
     id="metadata126">
    <rdf:RDF>
      <cc:Work
         rdf:about="">
        <dc:format>image/svg+xml</dc:format>
        <dc:type
           rdf:resource="http://purl.org/dc/dcmitype/StillImage" />
        <dc:title />
      </cc:Work>
    </rdf:RDF>
  </metadata>
  <defs
     id="defs124" />
  <sodipodi:namedview
     pagecolor="#ffffff"
     bordercolor="#666666"
     borderopacity="1"
     objecttolerance="10"
     gridtolerance="10"
     guidetolerance="10"
     inkscape:pageopacity="0"
     inkscape:pageshadow="2"
     inkscape:window-width="1366"
     inkscape:window-height="705"
     id="namedview122"
     showgrid="false"
     inkscape:zoom="0.45811456"
     inkscape:cx="-147.25491"
     inkscape:cy="501.8228"
     inkscape:window-x="-8"
     inkscape:window-y="-8"
     inkscape:window-maximized="1"
     inkscape:current-layer="layer1"
     fit-margin-top="10"
     fit-margin-left="10"
     fit-margin-bottom="10"
     fit-margin-right="10" />
  <!-- Front-->
  <!-- Back-->
  <!-- Left-->
  <!-- Right-->
  <!-- Top-->
  <!-- Bottom-->
  <g
     inkscape:groupmode="layer"
     id="layer1"
     inkscape:label="Holes"
     style="display:inline;photonsaw-power:80;photonsaw-speed:8"
     transform="translate(-695.27835,13.383098)">
    <circle
       transform="translate(731.16145,22.500001)"
       cx="221.45688"
       cy="323.14987"
       r="5.1377993"
       style="display:inline;fill:none;stroke:#000000;stroke-width:0.90000075"
       id="circle96" />
    <circle
       transform="translate(731.16145,22.500001)"
       cx="414.56726"
       cy="413.50427"
       r="5.1377993"
       style="display:inline;fill:none;stroke:#000000;stroke-width:0.90000075"
       id="circle98" />
    <circle
       transform="matrix(0,1,-1,0,1357.8351,771.32164)"
       cx="106.2993"
       cy="442.91376"
       r="23.031515"
       style="display:inline;fill:none;stroke:#000000;stroke-width:0.90000075"
       id="circle104" />
  </g>
  <g
     inkscape:groupmode="layer"
     id="layer2"
     inkscape:label="Cutting"
     style="display:inline;photonsaw-power:80;photonsaw-speed:8"
     transform="translate(-695.27835,13.383098)">
    <g
       transform="translate(731.16145,22.500001)"
       id="g94">
      <polygon
         style="fill:none;stroke:#000000;stroke-width:0.90000075"
         points="194.88205,10.62993 194.88205,0 216.14191,0 216.14191,10.62993 237.40177,10.62993 237.40177,0 258.66163,0 258.66163,10.62993 279.92149,10.62993 279.92149,0 301.18135,0 301.18135,10.62993 322.44121,10.62993 322.44121,0 343.70107,0 343.70107,10.62993 364.96093,10.62993 364.96093,0 386.22079,0 386.22079,10.62993 407.48065,10.62993 407.48065,0 428.74051,0 428.74051,10.62993 450.00037,10.62993 450.00037,0 471.26023,0 471.26023,10.62993 492.52009,10.62993 492.52009,0 513.77995,0 513.77995,10.62993 535.03981,10.62993 535.03981,0 556.29967,0 556.29967,10.62993 577.55953,10.62993 577.55953,0 598.81939,0 598.81939,10.62993 620.07925,10.62993 620.07925,0 641.33911,0 641.33911,10.62993 652.6777,10.62993 652.6777,18.070881 648.24856,18.070881 648.24856,26.929156 652.6777,26.929156 652.6777,35.787431 663.66196,35.787431 663.66196,26.929156 668.0911,26.929156 668.0911,18.070881 663.66196,18.070881 663.66196,10.62993 675.00055,10.62993 675.00055,0 698.03207,0 698.03207,31.88979 708.662,31.88979 708.662,41.279561 695.55175,41.279561 695.55175,54.389808 708.662,54.389808 708.662,63.77958 698.03207,63.77958 698.03207,85.03944 708.662,85.03944 708.662,106.2993 698.03207,106.2993 698.03207,127.55916 708.662,127.55916 708.662,148.81902 698.03207,148.81902 698.03207,170.07888 708.662,170.07888 708.662,191.33874 698.03207,191.33874 698.03207,212.5986 708.662,212.5986 708.662,233.85846 698.03207,233.85846 698.03207,255.11832 708.662,255.11832 708.662,276.37818 698.03207,276.37818 698.03207,297.63804 708.662,297.63804 708.662,318.8979 698.03207,318.8979 698.03207,340.15776 708.662,340.15776 708.662,361.41762 698.03207,361.41762 698.03207,382.67748 708.662,382.67748 708.662,403.93734 698.03207,403.93734 698.03207,425.1972 708.662,425.1972 708.662,446.45706 698.03207,446.45706 698.03207,467.71692 708.662,467.71692 708.662,477.10669 695.55175,477.10669 695.55175,490.21694 708.662,490.21694 708.662,499.60671 698.03207,499.60671 698.03207,531.4965 675.00055,531.4965 675.00055,520.86657 663.66196,520.86657 663.66196,513.42562 668.0911,513.42562 668.0911,504.56734 663.66196,504.56734 663.66196,495.70907 652.6777,495.70907 652.6777,504.56734 648.24856,504.56734 648.24856,513.42562 652.6777,513.42562 652.6777,520.86657 641.33911,520.86657 641.33911,531.4965 620.07925,531.4965 620.07925,520.86657 598.81939,520.86657 598.81939,531.4965 577.55953,531.4965 577.55953,520.86657 556.29967,520.86657 556.29967,531.4965 535.03981,531.4965 535.03981,520.86657 513.77995,520.86657 513.77995,531.4965 492.52009,531.4965 492.52009,520.86657 471.26023,520.86657 471.26023,531.4965 450.00037,531.4965 450.00037,520.86657 428.74051,520.86657 428.74051,531.4965 407.48065,531.4965 407.48065,520.86657 386.22079,520.86657 386.22079,531.4965 364.96093,531.4965 364.96093,520.86657 343.70107,520.86657 343.70107,531.4965 322.44121,531.4965 322.44121,520.86657 301.18135,520.86657 301.18135,531.4965 279.92149,531.4965 279.92149,520.86657 258.66163,520.86657 258.66163,531.4965 237.40177,531.4965 237.40177,520.86657 216.14191,520.86657 216.14191,531.4965 194.88205,531.4965 194.88205,520.86657 173.62219,520.86657 173.62219,531.4965 152.36233,531.4965 152.36233,520.86657 131.10247,520.86657 131.10247,531.4965 109.84261,531.4965 109.84261,520.86657 88.58275,520.86657 88.58275,531.4965 67.32289,531.4965 67.32289,520.86657 55.984298,520.86657 55.984298,513.42562 60.413435,513.42562 60.413435,504.56734 55.984298,504.56734 55.984298,495.70907 45.000037,495.70907 45.000037,504.56734 40.5709,504.56734 40.5709,513.42562 45.000037,513.42562 45.000037,520.86657 33.661445,520.86657 33.661445,531.4965 10.62993,531.4965 10.62993,499.60671 0,499.60671 0,490.21694 13.110247,490.21694 13.110247,477.10669 0,477.10669 0,467.71692 10.62993,467.71692 10.62993,446.45706 0,446.45706 0,425.1972 10.62993,425.1972 10.62993,403.93734 0,403.93734 0,382.67748 10.62993,382.67748 10.62993,361.41762 0,361.41762 0,340.15776 10.62993,340.15776 10.62993,318.8979 0,318.8979 0,297.63804 10.62993,297.63804 10.62993,276.37818 0,276.37818 0,255.11832 10.62993,255.11832 10.62993,233.85846 0,233.85846 0,212.5986 10.62993,212.5986 10.62993,191.33874 0,191.33874 0,170.07888 10.62993,170.07888 10.62993,148.81902 0,148.81902 0,127.55916 10.62993,127.55916 10.62993,106.2993 0,106.2993 0,85.03944 10.62993,85.03944 10.62993,63.77958 0,63.77958 0,54.389808 13.110247,54.389808 13.110247,41.279561 0,41.279561 0,31.88979 10.62993,31.88979 10.62993,0 33.661445,0 33.661445,10.62993 45.000037,10.62993 45.000037,18.070881 40.5709,18.070881 40.5709,26.929156 45.000037,26.929156 45.000037,35.787431 55.984298,35.787431 55.984298,26.929156 60.413435,26.929156 60.413435,18.070881 55.984298,18.070881 55.984298,10.62993 67.32289,10.62993 67.32289,0 88.58275,0 88.58275,10.62993 109.84261,10.62993 109.84261,0 131.10247,0 131.10247,10.62993 152.36233,10.62993 152.36233,0 173.62219,0 173.62219,10.62993 "
         id="polygon100" />
    </g>
    <g
       transform="matrix(0,1,-1,0,1357.8351,771.32164)"
       id="g102">
      <polygon
         style="fill:none;stroke:#000000;stroke-width:0.90000075"
         points="179.29149,13.110247 179.29149,0 186.02378,0 186.02378,10.62993 212.5986,10.62993 212.5986,31.88979 201.96867,31.88979 201.96867,42.342554 194.52772,42.342554 194.52772,37.913417 185.66944,37.913417 185.66944,42.342554 176.81117,42.342554 176.81117,53.326815 185.66944,53.326815 185.66944,57.755953 194.52772,57.755953 194.52772,53.326815 201.96867,53.326815 201.96867,63.77958 212.5986,63.77958 212.5986,85.03944 201.96867,85.03944 201.96867,106.2993 212.5986,106.2993 212.5986,127.55916 201.96867,127.55916 201.96867,148.81902 212.5986,148.81902 212.5986,170.07888 201.96867,170.07888 201.96867,191.33874 212.5986,191.33874 212.5986,212.5986 201.96867,212.5986 201.96867,233.85846 212.5986,233.85846 212.5986,255.11832 201.96867,255.11832 201.96867,276.37818 212.5986,276.37818 212.5986,297.63804 201.96867,297.63804 201.96867,318.8979 212.5986,318.8979 212.5986,340.15776 201.96867,340.15776 201.96867,361.41762 212.5986,361.41762 212.5986,382.67748 201.96867,382.67748 201.96867,403.93734 212.5986,403.93734 212.5986,425.1972 201.96867,425.1972 201.96867,446.45706 212.5986,446.45706 212.5986,467.71692 201.96867,467.71692 201.96867,478.16968 194.52772,478.16968 194.52772,473.74055 185.66944,473.74055 185.66944,478.16968 176.81117,478.16968 176.81117,489.15395 185.66944,489.15395 185.66944,493.58308 194.52772,493.58308 194.52772,489.15395 201.96867,489.15395 201.96867,499.60671 212.5986,499.60671 212.5986,520.86657 186.02378,520.86657 186.02378,531.4965 179.29149,531.4965 179.29149,518.38625 166.18124,518.38625 166.18124,531.4965 159.44895,531.4965 159.44895,520.86657 138.18909,520.86657 138.18909,531.4965 116.92923,531.4965 116.92923,520.86657 95.66937,520.86657 95.66937,531.4965 74.40951,531.4965 74.40951,520.86657 53.14965,520.86657 53.14965,531.4965 46.417361,531.4965 46.417361,518.38625 33.307114,518.38625 33.307114,531.4965 26.574825,531.4965 26.574825,520.86657 0,520.86657 0,499.60671 10.62993,499.60671 10.62993,489.15395 18.070881,489.15395 18.070881,493.58308 26.929156,493.58308 26.929156,489.15395 35.787431,489.15395 35.787431,478.16968 26.929156,478.16968 26.929156,473.74055 18.070881,473.74055 18.070881,478.16968 10.62993,478.16968 10.62993,467.71692 0,467.71692 0,446.45706 10.62993,446.45706 10.62993,425.1972 0,425.1972 0,403.93734 10.62993,403.93734 10.62993,382.67748 0,382.67748 0,361.41762 10.62993,361.41762 10.62993,340.15776 0,340.15776 0,318.8979 10.62993,318.8979 10.62993,297.63804 0,297.63804 0,276.37818 10.62993,276.37818 10.62993,255.11832 0,255.11832 0,233.85846 10.62993,233.85846 10.62993,212.5986 0,212.5986 0,191.33874 10.62993,191.33874 10.62993,170.07888 0,170.07888 0,148.81902 10.62993,148.81902 10.62993,127.55916 0,127.55916 0,106.2993 10.62993,106.2993 10.62993,85.03944 0,85.03944 0,63.77958 10.62993,63.77958 10.62993,53.326815 18.070881,53.326815 18.070881,57.755953 26.929156,57.755953 26.929156,53.326815 35.787431,53.326815 35.787431,42.342554 26.929156,42.342554 26.929156,37.913417 18.070881,37.913417 18.070881,42.342554 10.62993,42.342554 10.62993,31.88979 0,31.88979 0,10.62993 26.574825,10.62993 26.574825,0 33.307114,0 33.307114,13.110247 46.417361,13.110247 46.417361,0 53.14965,0 53.14965,10.62993 74.40951,10.62993 74.40951,0 95.66937,0 95.66937,10.62993 116.92923,10.62993 116.92923,0 138.18909,0 138.18909,10.62993 159.44895,10.62993 159.44895,0 166.18124,0 166.18124,13.110247 "
         id="polygon106" />
    </g>
    <g
       transform="translate(731.16145,553.99609)"
       id="g118">
      <polygon
         style="fill:none;stroke:#000000;stroke-width:0.90000075"
         points="152.36233,0 152.36233,10.62993 173.62219,10.62993 173.62219,0 194.88205,0 194.88205,10.62993 216.14191,10.62993 216.14191,0 237.40177,0 237.40177,10.62993 258.66163,10.62993 258.66163,0 279.92149,0 279.92149,10.62993 301.18135,10.62993 301.18135,0 322.44121,0 322.44121,10.62993 343.70107,10.62993 343.70107,0 364.96093,0 364.96093,10.62993 386.22079,10.62993 386.22079,0 407.48065,0 407.48065,10.62993 428.74051,10.62993 428.74051,0 450.00037,0 450.00037,10.62993 471.26023,10.62993 471.26023,0 492.52009,0 492.52009,10.62993 513.77995,10.62993 513.77995,0 535.03981,0 535.03981,10.62993 556.29967,10.62993 556.29967,0 577.55953,0 577.55953,10.62993 598.81939,10.62993 598.81939,0 620.07925,0 620.07925,10.62993 641.33911,10.62993 641.33911,0 651.61471,0 651.61471,13.110247 664.72496,13.110247 664.72496,0 675.00055,0 675.00055,10.62993 708.662,10.62993 708.662,26.574825 698.03207,26.574825 698.03207,34.370107 690.59112,34.370107 690.59112,29.94097 681.73284,29.94097 681.73284,34.370107 672.87457,34.370107 672.87457,45.354368 681.73284,45.354368 681.73284,49.783505 690.59112,49.783505 690.59112,45.354368 698.03207,45.354368 698.03207,53.14965 708.662,53.14965 708.662,74.40951 698.03207,74.40951 698.03207,95.66937 708.662,95.66937 708.662,116.92923 698.03207,116.92923 698.03207,138.18909 708.662,138.18909 708.662,159.44895 698.03207,159.44895 698.03207,167.24423 690.59112,167.24423 690.59112,162.81509 681.73284,162.81509 681.73284,167.24423 672.87457,167.24423 672.87457,178.22849 681.73284,178.22849 681.73284,182.65763 690.59112,182.65763 690.59112,178.22849 698.03207,178.22849 698.03207,186.02378 708.662,186.02378 708.662,201.96867 675.00055,201.96867 675.00055,212.5986 664.72496,212.5986 664.72496,199.48835 651.61471,199.48835 651.61471,212.5986 641.33911,212.5986 641.33911,201.96867 620.07925,201.96867 620.07925,212.5986 598.81939,212.5986 598.81939,201.96867 577.55953,201.96867 577.55953,212.5986 556.29967,212.5986 556.29967,201.96867 535.03981,201.96867 535.03981,212.5986 513.77995,212.5986 513.77995,201.96867 492.52009,201.96867 492.52009,212.5986 471.26023,212.5986 471.26023,201.96867 450.00037,201.96867 450.00037,212.5986 428.74051,212.5986 428.74051,201.96867 407.48065,201.96867 407.48065,212.5986 386.22079,212.5986 386.22079,201.96867 364.96093,201.96867 364.96093,212.5986 343.70107,212.5986 343.70107,201.96867 322.44121,201.96867 322.44121,212.5986 301.18135,212.5986 301.18135,201.96867 279.92149,201.96867 279.92149,212.5986 258.66163,212.5986 258.66163,201.96867 237.40177,201.96867 237.40177,212.5986 216.14191,212.5986 216.14191,201.96867 194.88205,201.96867 194.88205,212.5986 173.62219,212.5986 173.62219,201.96867 152.36233,201.96867 152.36233,212.5986 131.10247,212.5986 131.10247,201.96867 109.84261,201.96867 109.84261,212.5986 88.58275,212.5986 88.58275,201.96867 67.32289,201.96867 67.32289,212.5986 57.047291,212.5986 57.047291,199.48835 43.937044,199.48835 43.937044,212.5986 33.661445,212.5986 33.661445,201.96867 0,201.96867 0,186.02378 10.62993,186.02378 10.62993,178.22849 18.070881,178.22849 18.070881,182.65763 26.929156,182.65763 26.929156,178.22849 35.787431,178.22849 35.787431,167.24423 26.929156,167.24423 26.929156,162.81509 18.070881,162.81509 18.070881,167.24423 10.62993,167.24423 10.62993,159.44895 0,159.44895 0,138.18909 10.62993,138.18909 10.62993,116.92923 0,116.92923 0,95.66937 10.62993,95.66937 10.62993,74.40951 0,74.40951 0,53.14965 10.62993,53.14965 10.62993,45.354368 18.070881,45.354368 18.070881,49.783505 26.929156,49.783505 26.929156,45.354368 35.787431,45.354368 35.787431,34.370107 26.929156,34.370107 26.929156,29.94097 18.070881,29.94097 18.070881,34.370107 10.62993,34.370107 10.62993,26.574825 0,26.574825 0,10.62993 33.661445,10.62993 33.661445,0 43.937044,0 43.937044,13.110247 57.047291,13.110247 57.047291,0 67.32289,0 67.32289,10.62993 88.58275,10.62993 88.58275,0 109.84261,0 109.84261,10.62993 131.10247,10.62993 131.10247,0 "
         id="polygon120" />
    </g>
  </g>
</svg>
